<svg xmlns="http://www.w3.org/2000/svg" width="109.96" height="14.56" viewBox="0 0 109.96 14.56">
  <g id="Group_31" data-name="Group 31" transform="translate(-320.04 668)">
    <g id="MOMENT_iso" data-name="MOMENT iso" transform="translate(270.52 -716.72)">
      <path id="Path_3" data-name="Path 3" d="M-41.48-14h-3.2l-3.8,6.22L-52.28-14h-3.2v.866l3.2,4.994,3.328,5.44h.833l3.439-5.44V0h3.2Z" transform="translate(110 63)" fill="#fff"/>
      <path id="Path_4" data-name="Path 4" d="M-55.48-14h3.2l3.8,6.22,3.8-6.22h3.2v.866l-3.2,4.994L-48.008-2.7h-.833L-52.28-8.14V0h-3.2Z" transform="translate(105 63)" fill="#fff"/>
    </g>
    <path id="Path_66" data-name="Path 66" d="M-26.48-14h-3.2l-3.8,6.22L-37.28-14h-3.2V0h3.2V-8.14l3.62,5.94h.36l3.62-5.94V0h3.2ZM-17.4.28A7.218,7.218,0,0,0-10.12-7a7.218,7.218,0,0,0-7.28-7.28A7.218,7.218,0,0,0-24.68-7,7.218,7.218,0,0,0-17.4.28Zm0-3.12A3.982,3.982,0,0,1-21.48-7a3.982,3.982,0,0,1,4.08-4.16A3.982,3.982,0,0,1-13.32-7,3.982,3.982,0,0,1-17.4-2.84ZM5.68-14H2.48l-3.8,6.22L-5.12-14h-3.2V0h3.2V-8.14L-1.5-2.2h.36L2.48-8.14V0h3.2Zm5.6,10.92V-5.56h5V-8.6h-5v-2.32h5.5V-14H8.08V0h8.8V-3.08ZM26.48-14v7.6L21.08-14h-2.4V0h3.2V-7.6L27.28,0h2.4V-14Zm15,0H31.08v3.08h3.6V0h3.2V-10.92h3.6Z" transform="translate(388.52 -653.72)" fill="#fff"/>
  </g>
</svg>
