<svg xmlns="http://www.w3.org/2000/svg" width="613.671" height="139.743" viewBox="0 0 613.671 139.743">
  <g id="Group_27" data-name="Group 27" transform="translate(1923.648 417.871)">
    <path id="Path_15" data-name="Path 15" d="M61.3-85.4,44.286-32.314,26.851-85.4H.007L33.4,0H55.31L88-85.4Zm39.225,11.275h22.344V-93.382H100.521ZM100.347,0h22.692v-65.88H100.347Zm77.565-19.874c-4.787,0-7.635-2.846-7.635-7.564V-48.4h15.978V-65.88H169.706V-85.141h-4.662L135.527-53.709v5.3h12.058v24.859C147.586-8.906,156.441,0,171.01,0h15.612V-19.875ZM254.7-65.951l-2.322,5.095a31.255,31.255,0,0,0-20.13-7.08c-20.145,0-34.544,14.522-34.544,34.925,0,20.474,14.4,35.17,34.544,35.17a31.2,31.2,0,0,0,19.879-6.888L254.066-.07h17.542V-65.95ZM235.278-17.933c-8.5,0-14.747-6.422-14.747-15.026,0-8.551,6.2-14.973,14.747-14.973,8.5,0,14.747,6.422,14.747,14.973C250.026-24.355,243.778-17.933,235.278-17.933ZM290.788,0H313.48V-89.67H290.788Zm42.02-74.125h22.344V-93.382H332.809ZM332.635,0h22.692v-65.88H332.635Zm67.259,2.161c17.509,0,29.129-9.01,29.129-22.777,0-16.707-13.837-18.87-24.244-20.718-6.259-1.116-11.3-1.989-11.3-5.738,0-3.054,2.444-4.854,6.082-4.854,4.111,0,6.939,1.956,6.939,6.162h21.25c-.259-13.349-11.131-22.274-27.908-22.274-16.88,0-28.133,8.525-28.133,21.731,0,15.978,13.542,19.061,23.757,20.717,6.329,1.047,11.317,2.13,11.317,5.93,0,3.405-3.146,5.1-6.466,5.1-4.3,0-7.657-2.218-7.657-7.036H370.821c.207,14.274,11.12,23.757,29.076,23.757Z" transform="translate(-1739 -310)" fill="#fff"/>
    <path id="Icon_awesome-leaf" data-name="Icon awesome-leaf" d="M108.713,1.934a3.1,3.1,0,0,0-5.633-.239A34.133,34.133,0,0,1,73.243,19.112H57.319A38.227,38.227,0,0,0,19.1,57.329a39.356,39.356,0,0,0,.3,4.08c12.7-9.1,31.032-16.82,57.027-16.82a3.185,3.185,0,1,1,0,6.37c-50.041,0-71.259,30.673-75.957,42.2a6.378,6.378,0,0,0,11.8,4.837c.3-.717,4.16-9.534,14.312-18.034A38.133,38.133,0,0,0,61.4,95.327c31.251-2.269,53.245-30.3,53.245-64.611a72.382,72.382,0,0,0-5.932-28.782Z" transform="matrix(0.914, -0.407, 0.407, 0.914, -1923.651, -371.24)" fill="#fff"/>
  </g>
</svg>
